<?xml version="1.0" standalone="no"?>
<!DOCTYPE svg PUBLIC "-//W3C//DTD SVG 20010904//EN"
 "http://www.w3.org/TR/2001/REC-SVG-20010904/DTD/svg10.dtd">
<svg version="1.0" xmlns="http://www.w3.org/2000/svg"
 width="128.000000pt" height="128.000000pt" viewBox="0 0 128.000000 128.000000"
 preserveAspectRatio="xMidYMid meet">
<g transform="translate(0.000000,128.000000) scale(0.100000,-0.100000)"
fill="#000000" stroke="none">
<path d="M85 970 c-12 -20 7 -30 61 -30 53 0 54 0 54 -29 0 -27 -3 -30 -37
-33 l-38 -3 0 -95 0 -95 38 -3 c28 -2 37 -8 37 -22 0 -14 -9 -20 -37 -22 l-38
-3 0 -95 0 -95 37 -3 37 -3 3 -67 c2 -52 6 -67 18 -67 10 0 16 12 18 38 2 28
8 37 22 37 14 0 20 -9 22 -37 l3 -38 175 0 175 0 3 38 c2 28 8 37 22 37 14 0
20 -9 22 -37 l3 -38 95 0 95 0 3 37 3 37 157 3 157 3 0 275 0 275 -476 3
c-466 2 -477 3 -482 22 -4 18 -14 20 -75 20 -39 0 -74 -4 -77 -10z m1075 -310
l0 -240 -460 0 -460 0 0 240 0 240 460 0 460 0 0 -240z m-960 120 c0 -53 -2
-60 -20 -60 -18 0 -20 7 -20 60 0 53 2 60 20 60 18 0 20 -7 20 -60z m0 -240
c0 -53 -2 -60 -20 -60 -18 0 -20 7 -20 60 0 53 2 60 20 60 18 0 20 -7 20 -60z
m160 -180 c0 -13 -7 -20 -20 -20 -13 0 -20 7 -20 20 0 13 7 20 20 20 13 0 20
-7 20 -20z m80 0 c0 -13 -7 -20 -20 -20 -13 0 -20 7 -20 20 0 13 7 20 20 20
13 0 20 -7 20 -20z m80 0 c0 -13 -7 -20 -20 -20 -13 0 -20 7 -20 20 0 13 7 20
20 20 13 0 20 -7 20 -20z m80 0 c0 -13 -7 -20 -20 -20 -13 0 -20 7 -20 20 0
13 7 20 20 20 13 0 20 -7 20 -20z m160 0 c0 -13 -7 -20 -20 -20 -13 0 -20 7
-20 20 0 13 7 20 20 20 13 0 20 -7 20 -20z m80 0 c0 -13 -7 -20 -20 -20 -13 0
-20 7 -20 20 0 13 7 20 20 20 13 0 20 -7 20 -20z"/>
<path d="M412 849 c-80 -23 -142 -131 -128 -221 16 -98 92 -163 191 -163 106
0 186 64 201 161 22 151 -114 266 -264 223z m112 -38 c6 -9 -34 -91 -45 -91
-9 0 -48 88 -42 94 10 9 81 7 87 -3z m-110 -57 c9 -20 15 -39 12 -41 -4 -4
-34 10 -75 34 -6 4 30 43 39 43 3 0 14 -16 24 -36z m181 16 c10 -11 16 -22 14
-24 -12 -11 -72 -37 -75 -33 -6 6 28 77 36 77 4 0 15 -9 25 -20z m-212 -85
c20 -10 37 -21 37 -25 0 -10 -87 -49 -94 -43 -3 4 -6 23 -6 43 0 35 8 54 19
47 3 -1 23 -11 44 -22z m255 -20 c2 -21 -1 -42 -5 -46 -9 -9 -93 29 -93 41 0
8 74 48 85 46 6 -2 11 -20 13 -41z m-142 4 c10 -17 -13 -36 -27 -22 -12 12 -4
33 11 33 5 0 12 -5 16 -11z m-66 -64 c0 -11 -34 -75 -40 -75 -9 0 -44 39 -39
44 8 7 64 35 72 36 4 0 7 -2 7 -5z m143 -11 c43 -22 43 -21 22 -44 -24 -27
-29 -26 -48 15 -25 53 -24 54 26 29z m-66 -38 c12 -24 19 -47 16 -50 -10 -9
-81 -7 -87 3 -6 9 34 91 45 91 3 0 15 -20 26 -44z"/>
<path d="M852 849 c-80 -23 -142 -131 -128 -221 16 -98 92 -163 191 -163 106
0 186 64 201 161 22 151 -114 266 -264 223z m112 -38 c6 -9 -34 -91 -45 -91
-9 0 -48 88 -42 94 10 9 81 7 87 -3z m-110 -57 c9 -20 15 -39 12 -41 -4 -4
-34 10 -75 34 -6 4 30 43 39 43 3 0 14 -16 24 -36z m181 16 c10 -11 16 -22 14
-24 -12 -11 -72 -37 -75 -33 -6 6 28 77 36 77 4 0 15 -9 25 -20z m-212 -85
c20 -10 37 -21 37 -25 0 -10 -87 -49 -94 -43 -3 4 -6 23 -6 43 0 35 8 54 19
47 3 -1 23 -11 44 -22z m255 -20 c2 -21 -1 -42 -5 -46 -9 -9 -93 29 -93 41 0
8 74 48 85 46 6 -2 11 -20 13 -41z m-142 4 c10 -17 -13 -36 -27 -22 -12 12 -4
33 11 33 5 0 12 -5 16 -11z m-66 -64 c0 -11 -34 -75 -40 -75 -9 0 -44 39 -39
44 8 7 64 35 72 36 4 0 7 -2 7 -5z m143 -11 c43 -22 43 -21 22 -44 -24 -27
-29 -26 -48 15 -25 53 -24 54 26 29z m-66 -38 c12 -24 19 -47 16 -50 -10 -9
-81 -7 -87 3 -6 9 34 91 45 91 3 0 15 -20 26 -44z"/>
</g>
</svg>
